<?xml version="1.0" encoding="utf-8"?>
<!-- Generator: Adobe Illustrator 25.2.1, SVG Export Plug-In . SVG Version: 6.00 Build 0)  -->
<svg version="1.1" id="Capa_1" xmlns="http://www.w3.org/2000/svg" xmlns:xlink="http://www.w3.org/1999/xlink" x="0px" y="0px"
	 viewBox="0 0 425.2 425.2" style="enable-background:new 0 0 425.2 425.2;" xml:space="preserve">
<style type="text/css">
	.st0{fill:#F8F7F7;}
</style>
<g>
	<g>
		<path class="st0" d="M172.2,274.7c0,0,39.7-2.9,39.7-49.5c0-46.5-32.5-69.2-73.6-69.2H62.6h-2.2H3v260h57.4h2.2h75.7
			c0,0,82.6,2.6,82.6-76.7C220.9,339.3,224.5,274.7,172.2,274.7z M62.6,202.2h65.9h9.7c0,0,18.4,0,18.4,27s-10.8,31-23.1,31h-71
			V202.2z M134.8,369.8H62.6v-69.5h75.7c0,0,27.4-0.4,27.4,35.7C165.7,366.1,145.6,369.5,134.8,369.8z"/>
		<rect x="275.1" y="171.4" class="st0" width="107.3" height="32"/>
		<path class="st0" d="M331,222.2c-100,0-99.9,99.9-99.9,99.9s-6.9,99.4,99.9,99.4c0,0,89,5.1,89-69.1h-45.7c0,0,1.5,28-41.7,28
			c0,0-45.7,3.1-45.7-45.2h134.7C421.5,335,436.2,222.2,331,222.2z M371.7,300.3h-85.4c0,0,5.6-40.1,45.7-40.1
			C372.2,260.3,371.7,300.3,371.7,300.3z"/>
	</g>
</g>
</svg>
