<?xml version="1.0" encoding="utf-8"?>
<!-- Generator: Adobe Illustrator 25.2.1, SVG Export Plug-In . SVG Version: 6.00 Build 0)  -->
<svg version="1.1" id="Capa_1" xmlns="http://www.w3.org/2000/svg" xmlns:xlink="http://www.w3.org/1999/xlink" x="0px" y="0px"
	 viewBox="0 0 425.2 425.2" style="enable-background:new 0 0 425.2 425.2;" xml:space="preserve">
<style type="text/css">
	.st0{fill:#F8F7F7;}
</style>
<g>
	<g>
		<g>
			<path class="st0" d="M416.8,152.9L290.7,278.1l126.1,125.3c2.3-4.8,3.7-10,3.7-15.7V168.5C420.4,162.9,419.1,157.6,416.8,152.9z"
				/>
		</g>
	</g>
	<g>
		<g>
			<path class="st0" d="M383.9,132H41.3c-5.6,0-10.9,1.4-15.7,3.7L186.8,296c14.2,14.2,37.4,14.2,51.7,0l161.1-160.3
				C394.8,133.4,389.5,132,383.9,132z"/>
		</g>
	</g>
	<g>
		<g>
			<path class="st0" d="M8.4,152.9c-2.3,4.8-3.7,10-3.7,15.7v219.2c0,5.6,1.4,10.9,3.7,15.7l126.1-125.3L8.4,152.9z"/>
		</g>
	</g>
	<g>
		<g>
			<path class="st0" d="M273.5,295.3l-17.8,17.8c-23.7,23.7-62.4,23.7-86.1,0l-17.8-17.8L25.6,420.6c4.8,2.3,10,3.7,15.7,3.7h342.6
				c5.6,0,10.9-1.4,15.7-3.7L273.5,295.3z"/>
		</g>
	</g>
</g>
</svg>
