<svg id="Capa_1" data-name="Capa 1" xmlns="http://www.w3.org/2000/svg" viewBox="0 0 485.58 485.39"><defs><style>.cls-1{fill:#bf9a6d;}</style></defs><g id="Group_332" data-name="Group 332"><g id="Group_331" data-name="Group 331"><path id="Path_70" data-name="Path 70" class="cls-1" d="M430.57,81.34c-90.88-90.78-238.14-90.7-328.92.17A232.57,232.57,0,0,0,62.45,358L13.21,498.7l140.5-49.24c112.43,62.13,253.93,21.35,316.06-91.07A232.58,232.58,0,0,0,430.57,81.34ZM266.12,449.85A203.9,203.9,0,0,1,162.5,421.63l-5.8-3.38-97.06,34,34-97.19-3.38-5.71C33.05,252.26,65.39,127.15,162.49,69.93S384.72,45,441.94,142.14s24.89,222.23-72.22,279.45A204,204,0,0,1,266.12,449.85Z" transform="translate(-13.21 -13.3)"/></g></g><g id="Group_334" data-name="Group 334"><g id="Group_333" data-name="Group 333"><path id="Path_71" data-name="Path 71" class="cls-1" d="M391.16,302l-33.57-33.57a28.5,28.5,0,0,0-40.26,0L304.5,281.21a183.9,183.9,0,0,1-73.84-73.84l12.83-12.82a28.49,28.49,0,0,0,0-40.27l-33.58-33.57a28.48,28.48,0,0,0-40.26,0l-26.91,26.91c-15.15,15.15-15.87,41.31-2,73.63A326.1,326.1,0,0,0,290.6,371.11,107.73,107.73,0,0,0,332.09,381a43.77,43.77,0,0,0,32.14-12l26.9-26.9a28.48,28.48,0,0,0,0-40.27Zm-47,47c-6,6-22.6,4.43-42.3-4A298.33,298.33,0,0,1,167,210c-8.43-19.71-10-36.3-4-42.31l26.91-26.9,33.57,33.57L196.16,201.6l4.31,9A212.25,212.25,0,0,0,301.21,311.32l9,4.3,27.23-27.23L371,322Z" transform="translate(-13.21 -13.3)"/></g></g></svg>