<?xml version="1.0" encoding="utf-8"?>
<!-- Generator: Adobe Illustrator 25.2.1, SVG Export Plug-In . SVG Version: 6.00 Build 0)  -->
<svg version="1.1" id="Capa_1" xmlns="http://www.w3.org/2000/svg" xmlns:xlink="http://www.w3.org/1999/xlink" x="0px" y="0px"
	 viewBox="0 0 425.2 425.2" style="enable-background:new 0 0 425.2 425.2;" xml:space="preserve">
<style type="text/css">
	.st0{fill:#F8F7F7;}
</style>
<g>
	<path class="st0" d="M418.4,423.5L418.4,423.5l0.1,0V271.1c0-74.5-16-132-103.2-132c-41.9,0-70,23-81.5,44.8h-1.2v-37.8H150v277.4
		h86V286.1c0-36.2,6.9-71.1,51.6-71.1c44.1,0,44.8,41.3,44.8,73.5v135L418.4,423.5z"/>
	<path class="st0" d="M9.9,146.1H96v277.4H9.9L9.9,146.1z"/>
	<path class="st0" d="M52.9,8C25.3,8,3,30.4,3,57.9s22.3,50.4,49.9,50.4s49.9-22.8,49.9-50.4C102.8,30.4,80.4,8,52.9,8z"/>
</g>
</svg>
