<?xml version="1.0" encoding="utf-8"?>
<!-- Generator: Adobe Illustrator 25.0.1, SVG Export Plug-In . SVG Version: 6.00 Build 0)  -->
<svg version="1.1" id="Capa_1" xmlns="http://www.w3.org/2000/svg" xmlns:xlink="http://www.w3.org/1999/xlink" x="0px" y="0px"
	 viewBox="0 0 512 512" style="enable-background:new 0 0 512 512;" xml:space="preserve">
<style type="text/css">
	.st0{display:none;fill:#7D7D87;}
	.st1{fill:#7D7D87;}
</style>
<path class="st0" d="M373.4,0H138.6C62.2,0,0,62.2,0,138.6v234.8C0,449.8,62.2,512,138.6,512h234.8c76.4,0,138.6-62.2,138.6-138.6
	V138.6C512,62.2,449.8,0,373.4,0z M482,373.4c0,59.9-48.7,108.6-108.6,108.6H138.6C78.7,482,30,433.3,30,373.4V138.6
	C30,78.7,78.7,30,138.6,30h234.8C433.3,30,482,78.7,482,138.6V373.4z"/>
<path class="st0" d="M256,116c-77.2,0-140,62.8-140,140s62.8,140,140,140s140-62.8,140-140S333.2,116,256,116z M256,366
	c-60.6,0-110-49.3-110-110c0-60.6,49.3-110,110-110c60.6,0,110,49.3,110,110C366,316.6,316.6,366,256,366z"/>
<path class="st0" d="M399.3,66.3c-22.8,0-41.4,18.6-41.4,41.4s18.6,41.4,41.4,41.4s41.4-18.6,41.4-41.4S422.2,66.3,399.3,66.3z
	 M399.3,119c-6.3,0-11.4-5.1-11.4-11.4s5.1-11.4,11.4-11.4s11.4,5.1,11.4,11.4C410.7,113.9,405.6,119,399.3,119z"/>
<g id="Group_330">
	<path id="Path_69" class="st1" d="M505.1,96.8c-2.8-2.5-6.6-3.5-10.3-2.6l-17.1,6c9.3-10.9,16.6-23.3,21.4-36.8
		c1.7-3.4,1-7.6-1.7-10.3c-2.7-2.7-6.8-3.3-10.3-1.7c-20.1,9.1-40.7,17.1-61.6,24c0,0.9-0.9,0-1.7,0c-21.6-13.2-45.9-21.7-71.1-24.8
		c-61.7,1.9-110.4,53-109.5,114.7v3.4c-89-17.1-137.7-42.8-190.8-98.4l-8.6-8.6L38.8,72C13.9,119,24.1,176.8,63.6,212.3
		c-12.9-1.8-25.1-7.1-35.1-15.4c-3.4-2.9-8.2-3.2-12-0.9c-3.6,2.5-5.3,6.9-4.3,11.1C25,246,51.5,278.8,86.7,299.6
		c-14.4,1-28.8-2.6-41.1-10.3c-3.9-1.9-8.4-1.5-12,0.9c-3.6,2.5-5,7.1-3.4,11.1c12.7,41.4,50,70.5,93.3,72.7
		c-32.8,18.7-70.1,28.2-107.8,27.4c-4.9,0.1-9.3,3.1-11.1,7.7C3,413.7,4.3,418.8,8,422c30.8,24.8,99.3,39.4,184,39.4
		c150.6,0,273.9-134.3,273.9-299.5v-2.6c20.5-10.9,35.7-29.8,41.9-52.2C508.7,103.5,507.7,99.6,505.1,96.8z M453.8,145.6l-5.1,1.7
		v14.5c0,155.7-115.5,282.4-256.7,282.4c-77.9,0-130.1-12.8-158.3-26.5c43.5-1.5,85.5-16.8,119.8-43.6l21.4-15.4h-25.7
		c-48.8,0-78.8-13.7-95.8-46.2c16.1,4.5,33,6,49.6,4.3c6.8-0.7,13.7-1,20.5-0.9l2.6-17.1c-39.1-12.9-71.5-41-89.8-77.9
		c16.8,6.8,34.9,10,53.1,9.4h26.5l-21.4-15.4c-18-12.8-71-58.2-45.3-123.2c54.8,53.9,106.9,78.8,201.1,95.8l10.3,1.7v-23.9
		c-0.9-52.3,40.2-95.6,92.4-97.5c21.9,3,42.9,10.6,61.6,22.2c4.7,2.7,10.3,3.3,15.4,1.7c12.8-4.3,28.2-10.3,45.3-17.1
		c-8.4,13.8-19.1,25.9-31.7,35.9c-3.4,3-4.4,7.9-2.6,12c1.9,4.2,6.9,6.1,11.1,4.3l33.4-11.1C479,129.2,467.7,139.9,453.8,145.6
		L453.8,145.6z"/>
</g>
</svg>
